<?xml version="1.0" encoding="UTF-8" standalone="no"?>
<svg
   xmlns:dc="http://purl.org/dc/elements/1.1/"
   xmlns:cc="http://creativecommons.org/ns#"
   xmlns:rdf="http://www.w3.org/1999/02/22-rdf-syntax-ns#"
   xmlns:svg="http://www.w3.org/2000/svg"
   xmlns="http://www.w3.org/2000/svg"
   xmlns:sodipodi="http://sodipodi.sourceforge.net/DTD/sodipodi-0.dtd"
   xmlns:inkscape="http://www.inkscape.org/namespaces/inkscape"
   width="365.00003"
   height="365.00003"
   viewBox="0 0 96.572922 96.572929"
   version="1.1"
   id="svg8"
   inkscape:version="1.0.2 (e86c870879, 2021-01-15)"
   sodipodi:docname="social.svg"
   inkscape:export-filename="/home/paul/Pictures/icons/werwolf-online/public.png"
   inkscape:export-xdpi="96"
   inkscape:export-ydpi="96">
  <defs
     id="defs2">
    <inkscape:path-effect
       effect="fillet_chamfer"
       id="path-effect1008"
       is_visible="true"
       lpeversion="1"
       satellites_param="F,1,0,1,0,0,0,1 @ F,1,0,1,0,0,0,1 @ F,1,0,1,0,0.3,0,1 @ F,1,0,1,0,0.3,0,1"
       unit="px"
       method="auto"
       mode="F"
       radius="0"
       chamfer_steps="1"
       flexible="true"
       use_knot_distance="false"
       apply_no_radius="true"
       apply_with_radius="true"
       only_selected="false"
       hide_knots="false" />
    <inkscape:path-effect
       effect="fillet_chamfer"
       id="path-effect1006"
       is_visible="true"
       lpeversion="1"
       satellites_param="F,1,0,1,0,0,0,1 @ F,1,0,1,0,0,0,1 @ F,1,0,1,0,0.3,0,1 @ F,1,0,1,0,0.3,0,1"
       unit="px"
       method="auto"
       mode="F"
       radius="0"
       chamfer_steps="1"
       flexible="true"
       use_knot_distance="false"
       apply_no_radius="true"
       apply_with_radius="true"
       only_selected="false"
       hide_knots="false" />
    <inkscape:path-effect
       effect="fillet_chamfer"
       id="path-effect1004"
       is_visible="true"
       lpeversion="1"
       satellites_param="F,1,0,1,0,0,0,1 @ F,1,0,1,0,0,0,1 @ F,1,0,1,0,0.3,0,1 @ F,1,0,1,0,0.3,0,1"
       unit="px"
       method="auto"
       mode="F"
       radius="0"
       chamfer_steps="1"
       flexible="true"
       use_knot_distance="false"
       apply_no_radius="true"
       apply_with_radius="true"
       only_selected="false"
       hide_knots="false" />
    <inkscape:path-effect
       effect="fillet_chamfer"
       id="path-effect1002"
       is_visible="true"
       lpeversion="1"
       satellites_param="F,1,0,1,0,0,0,1 @ F,1,0,1,0,0,0,1 @ F,1,0,1,0,0.3,0,1 @ F,1,0,1,0,0.3,0,1"
       unit="px"
       method="auto"
       mode="F"
       radius="0"
       chamfer_steps="1"
       flexible="true"
       use_knot_distance="false"
       apply_no_radius="true"
       apply_with_radius="true"
       only_selected="false"
       hide_knots="false" />
    <inkscape:path-effect
       effect="fillet_chamfer"
       id="path-effect1000"
       is_visible="true"
       lpeversion="1"
       satellites_param="F,1,0,1,0,0,0,1 @ F,1,0,1,0,0,0,1 @ F,1,0,1,0,0.3,0,1 @ F,1,0,1,0,0.3,0,1"
       unit="px"
       method="auto"
       mode="F"
       radius="0"
       chamfer_steps="1"
       flexible="true"
       use_knot_distance="false"
       apply_no_radius="true"
       apply_with_radius="true"
       only_selected="false"
       hide_knots="false" />
    <inkscape:path-effect
       effect="fillet_chamfer"
       id="path-effect998"
       is_visible="true"
       lpeversion="1"
       satellites_param="F,1,0,1,0,0,0,1 @ F,1,0,1,0,0,0,1 @ F,1,0,1,0,0.3,0,1 @ F,1,0,1,0,0.3,0,1"
       unit="px"
       method="auto"
       mode="F"
       radius="0"
       chamfer_steps="1"
       flexible="true"
       use_knot_distance="false"
       apply_no_radius="true"
       apply_with_radius="true"
       only_selected="false"
       hide_knots="false" />
    <inkscape:path-effect
       effect="fillet_chamfer"
       id="path-effect996"
       is_visible="true"
       lpeversion="1"
       satellites_param="F,1,0,1,0,0,0,1 @ F,1,0,1,0,0,0,1 @ F,1,0,1,0,0.3,0,1 @ F,1,0,1,0,0.3,0,1"
       unit="px"
       method="auto"
       mode="F"
       radius="0"
       chamfer_steps="1"
       flexible="true"
       use_knot_distance="false"
       apply_no_radius="true"
       apply_with_radius="true"
       only_selected="false"
       hide_knots="false" />
    <inkscape:path-effect
       effect="fillet_chamfer"
       id="path-effect969"
       is_visible="true"
       lpeversion="1"
       satellites_param="F,1,0,1,0,0,0,1 @ F,1,0,1,0,0,0,1 @ F,1,0,1,0,0.3,0,1 @ F,1,0,1,0,0.3,0,1"
       unit="px"
       method="auto"
       mode="F"
       radius="0"
       chamfer_steps="1"
       flexible="true"
       use_knot_distance="false"
       apply_no_radius="true"
       apply_with_radius="true"
       only_selected="false"
       hide_knots="false" />
    <inkscape:path-effect
       effect="fillet_chamfer"
       id="path-effect965"
       is_visible="true"
       lpeversion="1"
       satellites_param="F,1,0,1,0,0,0,1 @ F,1,0,1,0,0,0,1 @ F,1,0,1,0,0.3,0,1 @ F,1,0,1,0,0.3,0,1"
       unit="px"
       method="auto"
       mode="F"
       radius="0"
       chamfer_steps="1"
       flexible="true"
       use_knot_distance="false"
       apply_no_radius="true"
       apply_with_radius="true"
       only_selected="false"
       hide_knots="false" />
    <inkscape:path-effect
       effect="fillet_chamfer"
       id="path-effect961"
       is_visible="true"
       lpeversion="1"
       satellites_param="F,1,0,1,0,0,0,1 @ F,1,0,1,0,0,0,1 @ F,1,0,1,0,0.3,0,1 @ F,1,0,1,0,0.3,0,1"
       unit="px"
       method="auto"
       mode="F"
       radius="0"
       chamfer_steps="1"
       flexible="true"
       use_knot_distance="false"
       apply_no_radius="true"
       apply_with_radius="true"
       only_selected="false"
       hide_knots="false" />
    <inkscape:path-effect
       effect="fillet_chamfer"
       id="path-effect957"
       is_visible="true"
       lpeversion="1"
       satellites_param="F,1,0,1,0,0,0,1 @ F,1,0,1,0,0,0,1 @ F,1,0,1,0,0.3,0,1 @ F,1,0,1,0,0.3,0,1"
       unit="px"
       method="auto"
       mode="F"
       radius="0"
       chamfer_steps="1"
       flexible="true"
       use_knot_distance="false"
       apply_no_radius="true"
       apply_with_radius="true"
       only_selected="false"
       hide_knots="false" />
    <inkscape:path-effect
       effect="fillet_chamfer"
       id="path-effect953"
       is_visible="true"
       lpeversion="1"
       satellites_param="F,1,0,1,0,0,0,1 @ F,1,0,1,0,0,0,1 @ F,1,0,1,0,0.3,0,1 @ F,1,0,1,0,0.3,0,1"
       unit="px"
       method="auto"
       mode="F"
       radius="0"
       chamfer_steps="1"
       flexible="true"
       use_knot_distance="false"
       apply_no_radius="true"
       apply_with_radius="true"
       only_selected="false"
       hide_knots="false" />
    <inkscape:path-effect
       effect="fillet_chamfer"
       id="path-effect949"
       is_visible="true"
       lpeversion="1"
       satellites_param="F,1,0,1,0,0,0,1 @ F,1,0,1,0,0,0,1 @ F,1,0,1,0,0.3,0,1 @ F,1,0,1,0,0.3,0,1"
       unit="px"
       method="auto"
       mode="F"
       radius="0"
       chamfer_steps="1"
       flexible="true"
       use_knot_distance="false"
       apply_no_radius="true"
       apply_with_radius="true"
       only_selected="false"
       hide_knots="false" />
    <inkscape:path-effect
       effect="fillet_chamfer"
       id="path-effect945"
       is_visible="true"
       lpeversion="1"
       satellites_param="F,1,0,1,0,0,0,1 @ F,1,0,1,0,0,0,1 @ F,1,0,1,0,0.3,0,1 @ F,1,0,1,0,0.3,0,1"
       unit="px"
       method="auto"
       mode="F"
       radius="0"
       chamfer_steps="1"
       flexible="true"
       use_knot_distance="false"
       apply_no_radius="true"
       apply_with_radius="true"
       only_selected="false"
       hide_knots="false" />
    <inkscape:path-effect
       effect="fillet_chamfer"
       id="path-effect941"
       is_visible="true"
       lpeversion="1"
       satellites_param="F,1,0,1,0,0,0,1 @ F,1,0,1,0,0,0,1 @ F,1,0,1,0,0.3,0,1 @ F,1,0,1,0,0.3,0,1"
       unit="px"
       method="auto"
       mode="F"
       radius="0"
       chamfer_steps="1"
       flexible="true"
       use_knot_distance="false"
       apply_no_radius="true"
       apply_with_radius="true"
       only_selected="false"
       hide_knots="false" />
    <inkscape:path-effect
       effect="fillet_chamfer"
       id="path-effect938"
       is_visible="true"
       lpeversion="1"
       satellites_param="F,0,0,1,0,0,0,1 @ F,0,0,1,0,0,0,1 @ F,0,0,1,0,0,0,1 @ F,0,0,1,0,0,0,1"
       unit="px"
       method="auto"
       mode="F"
       radius="0"
       chamfer_steps="1"
       flexible="false"
       use_knot_distance="true"
       apply_no_radius="true"
       apply_with_radius="true"
       only_selected="false"
       hide_knots="false" />
    <inkscape:path-effect
       effect="fillet_chamfer"
       id="path-effect5818"
       is_visible="true"
       lpeversion="1"
       satellites_param="F,0,0,1,0,0,0,1 @ F,0,0,1,0,0,0,1 @ F,0,0,1,0,3.7796499,0,1"
       unit="px"
       method="auto"
       mode="F"
       radius="0"
       chamfer_steps="1"
       flexible="false"
       use_knot_distance="true"
       apply_no_radius="true"
       apply_with_radius="true"
       only_selected="false"
       hide_knots="false" />
    <inkscape:path-effect
       effect="fillet_chamfer"
       id="path-effect5813"
       is_visible="true"
       lpeversion="1"
       satellites_param="F,0,0,1,0,0,0,1 @ F,0,0,1,0,0,0,1 @ F,0,0,1,0,5.6658067,0,1"
       unit="px"
       method="auto"
       mode="F"
       radius="0"
       chamfer_steps="1"
       flexible="false"
       use_knot_distance="true"
       apply_no_radius="true"
       apply_with_radius="true"
       only_selected="false"
       hide_knots="false" />
  </defs>
  <sodipodi:namedview
     id="base"
     pagecolor="#333333"
     bordercolor="#666666"
     borderopacity="1.0"
     inkscape:pageopacity="0"
     inkscape:pageshadow="2"
     inkscape:zoom="1.406721"
     inkscape:cx="197.59875"
     inkscape:cy="165.54725"
     inkscape:document-units="px"
     inkscape:current-layer="layer1"
     inkscape:document-rotation="0"
     showgrid="true"
     showborder="true"
     inkscape:snap-smooth-nodes="true"
     inkscape:snap-grids="false"
     inkscape:snap-to-guides="true"
     showguides="true"
     inkscape:guide-bbox="true"
     inkscape:snap-global="true"
     units="px"
     inkscape:window-width="1920"
     inkscape:window-height="1030"
     inkscape:window-x="0"
     inkscape:window-y="25"
     inkscape:window-maximized="0"
     inkscape:snap-nodes="true"
     fit-margin-top="0"
     fit-margin-left="0"
     fit-margin-right="0"
     fit-margin-bottom="0"
     inkscape:showpageshadow="true"
     inkscape:pagecheckerboard="false"
     inkscape:snap-intersection-paths="true"
     inkscape:object-paths="true"
     inkscape:snap-midpoints="true"
     inkscape:snap-bbox="true">
    <inkscape:grid
       type="xygrid"
       id="grid838"
       originx="-78.678879"
       originy="-78.677669"
       enabled="true"
       visible="false" />
  </sodipodi:namedview>
  <metadata
     id="metadata5">
    <rdf:RDF>
      <cc:Work
         rdf:about="">
        <dc:format>image/svg+xml</dc:format>
        <dc:type
           rdf:resource="http://purl.org/dc/dcmitype/StillImage" />
        <dc:title></dc:title>
      </cc:Work>
    </rdf:RDF>
  </metadata>
  <g
     inkscape:label="Layer 1"
     inkscape:groupmode="layer"
     id="layer1"
     transform="translate(-78.678886,-78.677658)">
    <circle
       style="fill:#0b0027;fill-opacity:1;stroke:#593e9b;stroke-width:3.96875;stroke-linecap:square;stroke-miterlimit:4;stroke-dasharray:none;stroke-opacity:1;paint-order:stroke fill markers"
       id="path873"
       cx="126.96535"
       cy="126.96412"
       r="46.302086" />
    <g
       id="g1463">
      <path
         style="fill:#593915;fill-opacity:1;stroke-width:0.264583"
         d="m 146.22442,92.844503 c 0,0 9.3435,15.840337 -2.0743,26.565757 v 0 c -0.5356,-2.01586 -1.2372,-3.90234 -2.11751,-5.62901 -1.6711,-3.27766 -3.97617,-5.9735 -6.9739,-7.85098 -0.22781,-0.14156 -0.45852,-0.27993 -0.69559,-0.41249 v -0.003 c 1.67746,-3.62824 5.0755,-8.152077 11.8645,-12.670107 z"
         id="path8" />
      <path
         style="fill:#6c4519;fill-opacity:1;stroke-width:0.264583"
         d="m 155.20422,135.34762 c -0.068,2.04972 -0.3541,4.54554 -1.1449,7.103 -0.1569,0.517 -0.3355,1.03717 -0.5387,1.55416 -0.2246,0.57547 -0.477,1.15094 -0.7601,1.72033 -2.2098,4.45029 -6.3122,8.57726 -13.797,10.31293 -1.98808,0.4646 -4.2164,0.75697 -6.70904,0.84322 -1.67428,0.39079 -3.48694,0.60008 -5.44724,0.60008 -3.10224,0 -5.85655,-0.39714 -8.29734,-1.08321 -2.42199,-0.68024 -4.53628,-1.64332 -6.37672,-2.78209 v -0.003 c -3.71157,-2.29579 -6.32751,-5.2996 -8.13726,-8.13726 -2.63446,-4.12089 -3.76687,-9.02362 -3.36682,-13.89856 0.43074,-5.26283 1.17872,-12.82753 1.99416,-14.36 -5.19192,-6.40133 -4.22248,-14.06763 -2.64054,-19.136525 1.03717,-3.3237 2.33892,-5.53032 2.33892,-5.53032 7.07231,4.70561 10.46374,9.420495 12.06738,13.119895 3.72692,-1.89891 7.94623,-2.96994 12.41822,-2.96994 4.10236,0 7.5647,0.90487 10.43305,2.52359 0.23707,0.13229 0.46778,0.27093 0.69559,0.41249 2.99746,1.87722 5.30274,4.57332 6.97394,7.85098 0.8802,1.7264 1.5819,3.61315 2.1174,5.62901 0.3879,1.45574 0.6863,2.97603 0.9017,4.55189 1.0218,2.04047 2.3606,3.9579 4.1056,5.275 2.0155,1.52347 3.2527,3.87773 3.1697,6.4045 z"
         id="path4" />
      <path
         style="fill:#593915;fill-opacity:1;stroke-width:0.264583"
         d="m 139.893,159.70066 c -0.3048,0.0831 -0.61251,0.16008 -0.92948,0.23389 -1.98808,0.46461 -4.2164,0.75698 -6.70904,0.84323 -1.67428,0.39079 -3.48694,0.60008 -5.44724,0.60008 -3.10224,0 -5.85655,-0.39714 -8.29734,-1.08321 -2.42199,-0.68024 -4.53628,-1.64332 -6.37672,-2.78209 v -0.003 c -0.38153,-0.23707 -0.75089,-0.48022 -1.11098,-0.73237 l 1.11098,-3.16071 c 2.71436,1.67719 6.02298,2.97603 10.033,3.54542 1.45256,0.20928 2.99747,0.32014 4.64106,0.32014 1.96056,0 3.77322,-0.20928 5.44724,-0.60007 2.4929,-0.0862 4.72096,-0.37862 6.70904,-0.84323 v 0.003 c 0,-2.6e-4 0.37571,1.32001 0.92948,3.65892 z"
         id="path14" />
      <path
         style="fill:#593915;fill-opacity:1;stroke-width:0.264583"
         d="m 118.50673,156.39549 c 0,0 0,0.003 0.003,0.003 -2.42199,-0.68025 -4.53628,-1.64333 -6.37672,-2.7821 v -0.003 c -3.71157,-2.29579 -6.32751,-5.2996 -8.13726,-8.13726 -2.63446,-4.12088 -3.76687,-9.02361 -3.36682,-13.89856 0.43074,-5.26283 1.17872,-12.82753 1.99416,-14.36 -5.19192,-6.40133 -4.22248,-14.06763 -2.64054,-19.136516 v -0.0032 c 1.03717,-3.320785 2.33892,-5.52741 2.33892,-5.52741 7.07231,4.705614 10.46374,9.420486 12.06738,13.119896 3.72692,-1.89892 7.94623,-2.96995 12.41822,-2.96995 0,0 -32.60328,15.39928 -8.30051,53.69507 z"
         id="path18" />
      <path
         style="fill:#000000;fill-opacity:0;stroke-width:0.264583"
         d="m 108.6092,110.64083 -5.98594,6.57674 c -5.19192,-6.40133 -4.22248,-14.06762 -2.64054,-19.136515 0.1569,0.1815 5.84438,6.946105 8.62648,12.559775 z"
         id="path26" />
      <g
         id="g40"
         transform="matrix(0.26458334,0,0,0.26458334,59.80278,91.438178)"
         style="fill:#9c9c9c;fill-opacity:1">
        <polyline
           style="fill:#9c9c9c;fill-opacity:1"
           points="270.878,190.138 275.519,212.498 287.546,195.768  "
           id="polyline36" />
        <polyline
           style="fill:#9c9c9c;fill-opacity:1"
           points="329.037,190.138 333.678,212.498 345.706,195.768  "
           id="polyline38" />
      </g>
      <path
         style="fill:#452c10;fill-opacity:1;stroke-width:0.264583"
         d="m 154.05932,142.45089 c -0.1569,0.51699 -0.3355,1.03716 -0.5387,1.55416 -0.2246,0.57547 -0.477,1.15094 -0.7601,1.72032 -0.025,0.003 -0.046,0.003 -0.071,0.006 -0.3323,0.009 -0.6678,0.0339 -1.0033,0.0214 -0.3355,-0.0307 -0.6739,-0.0431 -1.0094,-0.0984 -0.3294,-0.0646 -0.671,-0.11086 -0.9972,-0.20611 -1.3203,-0.35084 -2.576,-1.00013 -3.6378,-1.89574 -0.4032,-0.33867 -0.7787,-0.71094 -1.1263,-1.11099 -0.2463,0.29845 -0.5078,0.58473 -0.7879,0.85249 -0.9663,0.9017 -2.10217,1.61264 -3.33301,2.05264 -1.22793,0.44318 -2.53894,0.63103 -3.81,0.53869 -1.27106,-0.077 -2.51433,-0.44 -3.61315,-1.01256 -0.27384,-0.15081 -0.53552,-0.31697 -0.79719,-0.47704 -0.25241,-0.17542 -0.49239,-0.36619 -0.73554,-0.54769 -0.22781,-0.2032 -0.44635,-0.4154 -0.66463,-0.62177 -0.20003,-0.22146 -0.39688,-0.45244 -0.59082,-0.6739 -1.47426,-1.88039 -2.02512,-4.33334 -1.4896,-6.40132 0.26167,1.03399 0.68024,1.96347 1.21258,2.76674 0.53552,0.8001 1.19116,1.47426 1.92035,1.99126 1.46182,1.04034 3.16997,1.45891 4.758,1.2864 1.58803,-0.17859 3.01599,-0.91096 4.01638,-2.03121 0.50773,-0.55403 0.89561,-1.18797 1.16019,-1.87113 0.26459,-0.68024 0.40614,-1.40943 0.41249,-2.14207 -0.006,-1.27105 1.01865,-2.30505 2.28975,-2.3114 1.2649,-0.009 2.2957,1.00648 2.3114,2.26828 v 0.0431 c -0.01,0.78158 0.1508,1.55416 0.4339,2.28044 0.2955,0.72311 0.7263,1.40653 1.2835,1.98517 0.5569,0.57865 1.2311,1.06495 1.9912,1.40653 0.1847,0.0955 0.3879,0.14763 0.5848,0.23071 0.1968,0.0709 0.4061,0.10769 0.6125,0.16934 0.2061,0.0492 0.4217,0.077 0.6371,0.12012 0.2124,0.0246 0.4278,0.0339 0.6464,0.0553 l 0.16,-0.006 c 0.1778,0.018 0.3564,0.0365 0.535,0.0582 z"
         id="path42" />
      <path
         style="fill:#000000;fill-opacity:1;stroke-width:0.264583"
         d="m 148.56812,135.83154 h -7.73796 c -1.27477,0 -2.30823,-1.03346 -2.30823,-2.30822 0,-1.27477 1.03346,-2.30823 2.30823,-2.30823 h 7.73796 c 1.2748,0 2.3083,1.03346 2.3083,2.30823 0,1.27476 -1.0335,2.30822 -2.3083,2.30822 z"
         id="path44" />
      <g
         id="g1007"
         transform="matrix(0.22377172,0,0,0.22377172,-1.22498,105.67324)">
        <g
           id="g999"
           transform="translate(3.58551,7.6720092e-5)">
          <path
             id="path995"
             style="fill:#ff0000;fill-opacity:1;stroke-width:7.77882;stroke-linecap:round;stroke-linejoin:round"
             d="m 585.40846,73.005004 a 16.391061,16.391061 0 0 0 -17.33347,0.68578 16.391061,16.391061 0 0 0 8.15117,15.398755 16.391061,16.391061 0 0 0 17.41197,-0.64046 16.391061,16.391061 0 0 0 -8.15159,-15.398995 16.391061,16.391061 0 0 0 -0.0781,-0.0451 z" />
          <path
             id="path997"
             style="fill:#000000;fill-opacity:1;stroke-width:4.62714;stroke-linecap:round;stroke-linejoin:round"
             d="m 587.25197,81.331918 a 8.7743411,10.834281 0 0 0 -4.95733,-9.695578 8.7743411,10.834281 0 0 0 -4.95707,9.755174 8.7743411,10.834281 0 0 0 4.95734,9.755493 8.7743411,10.834281 0 0 0 4.95705,-9.755492 8.7743411,10.834281 0 0 0 0,-0.05962 z" />
        </g>
        <g
           id="g1005"
           transform="translate(10.53653,7.6720092e-5)">
          <path
             id="path1001"
             style="fill:#ff0000;fill-opacity:1;stroke-width:7.77882;stroke-linecap:round;stroke-linejoin:round"
             d="m 623.32174,73.005004 a 16.391061,16.391061 0 0 1 17.33347,0.68578 16.391061,16.391061 0 0 1 -8.15117,15.398755 16.391061,16.391061 0 0 1 -17.41197,-0.64046 16.391061,16.391061 0 0 1 8.15159,-15.398995 16.391061,16.391061 0 0 1 0.0781,-0.0451 z" />
          <path
             id="path1003"
             style="fill:#000000;fill-opacity:1;stroke-width:4.62714;stroke-linecap:round;stroke-linejoin:round"
             d="m 621.47823,81.331918 a 8.7743411,10.834281 0 0 1 4.95733,-9.695578 8.7743411,10.834281 0 0 1 4.95707,9.755174 8.7743411,10.834281 0 0 1 -4.95734,9.755493 8.7743411,10.834281 0 0 1 -4.95705,-9.755492 8.7743411,10.834281 0 0 1 0,-0.05962 z" />
        </g>
      </g>
    </g>
  </g>
</svg>
